<svg width="40" height="40" viewBox="0 0 40 40" fill="none" xmlns="http://www.w3.org/2000/svg">
<g id="Icons8 Russian Federation 2 1">
<g id="Group">
<path id="Vector" d="M20 3.3335C12.8508 3.3335 6.77082 7.8435 4.40332 14.1668H35.5958C33.2292 7.8435 27.1492 3.3335 20 3.3335Z" fill="#E0E1E2"/>
<path id="Vector_2" d="M36.6663 20.0001C36.6663 17.9443 36.2763 15.9851 35.5963 14.1668H4.40301C3.72301 15.9851 3.33301 17.9443 3.33301 20.0001C3.33301 22.056 3.72301 24.0151 4.40301 25.8335H35.5955C36.2763 24.0151 36.6663 22.056 36.6663 20.0001Z" fill="#3F51B5"/>
<path id="Vector_3" d="M35.5967 25.8335H4.40332C6.77082 32.1568 12.8508 36.6668 20 36.6668C27.1492 36.6668 33.2292 32.1568 35.5967 25.8335Z" fill="#FF3D00"/>
</g>
</g>
</svg>
