<svg width="200" height="200" viewBox="0 0 200 200" fill="none" xmlns="http://www.w3.org/2000/svg">
<rect width="200" height="200" rx="16" fill="#FFF1DB"/>
<path d="M115.425 119.573C115.045 115.382 115.191 112.457 115.191 108.627C117.089 107.628 120.49 101.279 121.064 95.9179C122.557 95.7957 124.91 94.3397 125.599 88.5911C125.971 85.5049 124.494 83.7681 123.594 83.2221C126.023 75.9187 131.067 53.3247 114.265 50.9899C112.536 47.9531 108.109 46.4165 102.355 46.4165C79.3344 46.8403 76.5576 63.8001 81.6042 83.2221C80.7072 83.7681 79.2304 85.5049 79.5996 88.5911C80.2912 94.3397 82.6416 95.7957 84.134 95.9179C84.706 101.279 88.242 107.628 90.1452 108.627C90.1452 112.457 90.2882 115.382 89.9086 119.573C85.3534 131.821 54.6188 128.382 53.1992 152H151.999C150.582 128.382 119.98 131.821 115.425 119.573Z" fill="#FFB84D"/>
</svg>
