<svg width="15" height="16" viewBox="0 0 15 16" fill="none" xmlns="http://www.w3.org/2000/svg">
<g id="elements">
<path id="Ellipse 438" d="M0.833985 8.00004C0.833985 11.6819 3.81875 14.6667 7.50065 14.6667C11.1826 14.6667 14.1673 11.6819 14.1673 8.00004C14.1673 4.31814 11.1826 1.33337 7.50065 1.33337" stroke="#1A1A1A" stroke-width="1.5" stroke-linecap="round"/>
<path id="Ellipse 439" d="M2.60034 3.38592C2.69257 3.28816 2.78763 3.19308 2.88537 3.10082M4.79952 1.81968C4.92053 1.76528 5.04339 1.71427 5.16797 1.66675M1.32245 5.2947C1.26747 5.41687 1.21593 5.54093 1.16797 5.66675" stroke="#1A1A1A" stroke-width="1.5" stroke-linecap="round" stroke-linejoin="round"/>
<path id="Vector" d="M9.5 6L7.5 8M7.5 8L5.5 10M7.5 8L9.5 10M7.5 8L5.5 6" stroke="#1A1A1A" stroke-width="1.5" stroke-linecap="round" stroke-linejoin="round"/>
</g>
</svg>
