<svg width="22" height="22" viewBox="0 0 22 22" fill="none" xmlns="http://www.w3.org/2000/svg">
<g id="elements">
<path id="Ellipse 438" d="M1 11C1 16.5228 5.47715 21 11 21C16.5228 21 21 16.5228 21 11C21 5.47715 16.5228 0.999999 11 0.999999" stroke="#1A1A1A" stroke-width="1.5" stroke-linecap="round"/>
<path id="Ellipse 439" d="M3.64856 4.07876C3.78691 3.93211 3.92948 3.7895 4.0761 3.65111M6.94733 1.72939C7.12884 1.6478 7.31313 1.57128 7.5 1.5M1.73172 6.94192C1.64925 7.12518 1.57195 7.31127 1.5 7.5" stroke="#1A1A1A" stroke-width="1.5" stroke-linecap="round" stroke-linejoin="round"/>
<path id="Vector" d="M14 8L11 11M11 11L8 14M11 11L14 14M11 11L8 8" stroke="#1A1A1A" stroke-width="1.5" stroke-linecap="round" stroke-linejoin="round"/>
</g>
</svg>
