<svg width="15" height="16" viewBox="0 0 15 16" fill="none" xmlns="http://www.w3.org/2000/svg">
<g id="elements">
<path id="Rectangle 980" d="M12.5 3.66675L12.0868 10.3501C11.9813 12.0577 11.9285 12.9115 11.5005 13.5253C11.2889 13.8288 11.0164 14.0849 10.7005 14.2774C10.0614 14.6667 9.20599 14.6667 7.49516 14.6667C5.78208 14.6667 4.92554 14.6667 4.28604 14.2767C3.96987 14.0839 3.69733 13.8273 3.48579 13.5233C3.05792 12.9085 3.0063 12.0535 2.90307 10.3435L2.5 3.66675" stroke="red" stroke-width="1.5" stroke-linecap="round"/>
<path id="Vector" d="M1.5 3.66671H13.5M10.2038 3.66671L9.7487 2.72786C9.44638 2.10421 9.29522 1.79239 9.03448 1.59791C8.97664 1.55477 8.9154 1.5164 8.85135 1.48317C8.56261 1.33337 8.21608 1.33337 7.52302 1.33337C6.81255 1.33337 6.45732 1.33337 6.16379 1.48945C6.09873 1.52405 6.03666 1.56397 5.9782 1.60882C5.71443 1.81117 5.56709 2.13441 5.2724 2.78088L4.86862 3.66671" stroke="red" stroke-width="1.5" stroke-linecap="round"/>
<path id="Line 5" d="M5.83398 11L5.83398 7" stroke="red" stroke-width="1.5" stroke-linecap="round"/>
<path id="Line 6" d="M9.16602 11L9.16602 7" stroke="red" stroke-width="1.5" stroke-linecap="round"/>
</g>
</svg>
