<svg xmlns="http://www.w3.org/2000/svg" width="16" height="16" viewBox="0 0 16 16" fill="none">
  <path opacity="0.4" d="M14.6654 8.00004C14.6654 11.6819 11.6806 14.6667 7.9987 14.6667C4.3168 14.6667 1.33203 11.6819 1.33203 8.00004C1.33203 4.31814 4.3168 1.33337 7.9987 1.33337C11.6806 1.33337 14.6654 4.31814 14.6654 8.00004Z" fill="#00AE11"/>
  <path fill-rule="evenodd" clip-rule="evenodd" d="M8.4987 5.33337C8.4987 5.05723 8.27484 4.83337 7.9987 4.83337C7.72256 4.83337 7.4987 5.05723 7.4987 5.33337V7.50004H5.33203C5.05589 7.50004 4.83203 7.7239 4.83203 8.00004C4.83203 8.27618 5.05589 8.50004 5.33203 8.50004H7.4987V10.6667C7.4987 10.9429 7.72256 11.1667 7.9987 11.1667C8.27484 11.1667 8.4987 10.9429 8.4987 10.6667V8.50004H10.6654C10.9415 8.50004 11.1654 8.27618 11.1654 8.00004C11.1654 7.7239 10.9415 7.50004 10.6654 7.50004H8.4987V5.33337Z" fill="#00AE11"/>
</svg>