<svg width="16" height="20" viewBox="0 0 16 20" fill="none" xmlns="http://www.w3.org/2000/svg">
<g id="elements">
<path id="Rectangle 2173" d="M8.41797 1.66663H8.64524C11.3629 1.66663 12.7217 1.66663 13.6654 2.33149C13.9358 2.52198 14.1758 2.7479 14.3782 3.00237C15.0846 3.89052 15.0846 5.16942 15.0846 7.72723V9.84844C15.0846 12.3178 15.0846 13.5524 14.6939 14.5385C14.0656 16.1238 12.737 17.3742 11.0527 17.9655C10.0049 18.3333 8.69313 18.3333 6.06948 18.3333C4.57026 18.3333 3.82065 18.3333 3.22195 18.1231C2.25946 17.7853 1.50026 17.0707 1.14127 16.1648C0.917969 15.6014 0.917969 14.8958 0.917969 13.4848V9.99996" stroke="#00AE11" stroke-width="1.5" stroke-linecap="round" stroke-linejoin="round"/>
<path id="Vector" d="M15.0833 10C15.0833 11.5341 13.8397 12.7778 12.3056 12.7778C11.7507 12.7778 11.0966 12.6806 10.5572 12.8251C10.0779 12.9535 9.70353 13.3279 9.5751 13.8072C9.43056 14.3466 9.52778 15.0007 9.52778 15.5556C9.52778 17.0897 8.28412 18.3333 6.75 18.3333" stroke="#00AE11" stroke-width="1.5" stroke-linecap="round" stroke-linejoin="round"/>
<path id="Vector_2" d="M1.75 6.24992C2.15961 6.67133 3.24981 8.33325 3.83333 8.33325M5.91667 6.24992C5.50706 6.67133 4.41686 8.33325 3.83333 8.33325M3.83333 8.33325L3.83333 1.66658" stroke="#00AE11" stroke-width="1.5" stroke-linecap="round" stroke-linejoin="round"/>
</g>
</svg>
